<svg width="278" height="229" viewBox="0 0 278 229" fill="none" xmlns="http://www.w3.org/2000/svg">
<path d="M90.4 157L93.22 183.51C93.2319 183.556 93.2249 183.606 93.2006 183.647C93.1762 183.688 93.1364 183.718 93.09 183.73C93.0436 183.742 92.9943 183.735 92.9531 183.711C92.9118 183.686 92.8819 183.646 92.87 183.6L84 162.64L90.4 157Z" fill="#EECEC1"/>
<path d="M219.237 5.2246C219.106 8.11008 221.236 10.5508 223.995 10.676C226.754 10.8013 229.096 8.56371 229.227 5.67823C229.358 2.79275 227.228 0.352065 224.47 0.226798C221.711 0.101532 219.368 2.33912 219.237 5.2246Z" fill="#F7B500"/>
<path d="M240.039 24.2655C240.183 27.4501 242.762 29.92 245.797 29.7822C248.833 29.6443 251.176 26.9509 251.032 23.7663C250.887 20.5817 248.309 18.1117 245.274 18.2496C242.238 18.3874 239.894 21.0808 240.039 24.2655Z" fill="#C00017"/>
<path d="M201.239 5.50714C201.329 8.37761 203.609 10.6352 206.33 10.5497C209.051 10.4642 211.184 8.0679 211.094 5.19743C211.004 2.32697 208.725 0.069331 206.003 0.154855C203.282 0.240379 201.149 2.63668 201.239 5.50714Z" fill="#EECEC1"/>
<path d="M93.6367 154.712L87.2367 160.352L10.7067 228.152C10.6729 228.179 10.63 228.193 10.5861 228.192C10.5422 228.191 10.5004 228.174 10.4684 228.146C10.4365 228.118 10.4166 228.08 10.4126 228.038C10.4086 227.997 10.4207 227.956 10.4467 227.922L125.057 75.552C125.096 75.4997 125.149 75.461 125.211 75.441C125.273 75.4211 125.34 75.4208 125.403 75.4403C125.465 75.4599 125.521 75.4982 125.563 75.5503C125.605 75.6024 125.631 75.6658 125.637 75.7321L127.507 100.432L129.127 118.792L129.977 132.152C130.01 132.659 130.197 132.719 130.537 132.332L222.847 28.342C222.895 28.2852 222.93 28.2179 222.948 28.1454C222.965 28.0729 222.966 27.9973 222.95 27.9245C222.933 27.8516 222.9 27.7837 222.852 27.726C222.805 27.6683 222.745 27.6224 222.677 27.592L208.727 21.552C208.353 21.392 208.293 21.1487 208.547 20.8221C210.627 18.2221 212.767 15.602 216.347 15.342C234.267 14.0354 252.173 12.7187 270.067 11.3921C270.195 11.3798 270.325 11.4009 270.444 11.4534C270.563 11.5059 270.667 11.588 270.747 11.692L277.557 20.312C277.783 20.5987 277.763 20.8687 277.497 21.122L106.687 183.222C106.642 183.263 106.587 183.291 106.528 183.302C106.469 183.314 106.408 183.309 106.351 183.289C106.294 183.268 106.244 183.232 106.207 183.185C106.169 183.138 106.145 183.082 106.137 183.022L102.257 147.712C102.252 147.66 102.233 147.61 102.201 147.568C102.17 147.526 102.127 147.494 102.078 147.475C102.029 147.456 101.976 147.452 101.924 147.462C101.873 147.472 101.825 147.496 101.787 147.532L93.6367 154.712ZM246.159 29.1768C246.801 29.1476 247.43 28.9862 248.011 28.7018C248.592 28.4173 249.113 28.0154 249.545 27.5189C249.977 27.0225 250.312 26.4412 250.529 25.8083C250.746 25.1754 250.842 24.5032 250.812 23.8303C250.781 23.1573 250.624 22.4966 250.351 21.886C250.077 21.2754 249.692 20.7268 249.216 20.2715C248.741 19.8162 248.185 19.4632 247.581 19.2326C246.977 19.0019 246.335 18.8982 245.694 18.9274C245.052 18.9565 244.423 19.1179 243.842 19.4023C243.261 19.6868 242.74 20.0887 242.308 20.5852C241.876 21.0816 241.542 21.6629 241.324 22.2958C241.107 22.9287 241.011 23.6009 241.042 24.2738C241.072 24.9468 241.229 25.6075 241.503 26.2181C241.776 26.8287 242.162 27.3773 242.637 27.8326C243.112 28.2879 243.668 28.6409 244.272 28.8716C244.877 29.1022 245.518 29.2059 246.159 29.1768Z" fill="#F7B500"/>
<path d="M129.127 118.792L127.507 100.432L191.017 28.682C191.244 28.4287 191.207 28.222 190.907 28.062L180.017 22.412C179.949 22.3751 179.891 22.3218 179.848 22.2571C179.805 22.1923 179.78 22.118 179.773 22.0408C179.766 21.9635 179.778 21.8858 179.808 21.8145C179.839 21.7432 179.886 21.6805 179.947 21.632L184.737 17.812C185.01 17.592 185.327 17.472 185.687 17.452L198.267 16.632C198.347 16.6259 198.427 16.6446 198.496 16.6857C198.565 16.7268 198.62 16.7882 198.652 16.8615C198.685 16.9348 198.695 17.0164 198.679 17.0953C198.664 17.1741 198.625 17.2463 198.567 17.302L194.327 21.552C193.927 21.9453 193.987 22.2553 194.507 22.482L208.497 28.542C208.81 28.6753 208.853 28.8687 208.627 29.122L129.127 118.792Z" fill="#EECEC1"/>
<path d="M97.0167 76.9024L111.477 75.9624C111.542 75.9575 111.606 75.9712 111.664 76.0021C111.721 76.0329 111.768 76.0795 111.8 76.1363C111.831 76.1931 111.846 76.2578 111.842 76.3227C111.838 76.3876 111.815 76.45 111.777 76.5024L2.00668 222.672C1.96995 222.719 1.92178 222.755 1.86692 222.777C1.81206 222.799 1.75241 222.806 1.69385 222.798C1.6353 222.79 1.57985 222.767 1.533 222.731C1.48615 222.695 1.4495 222.647 1.42668 222.592L0.0266773 219.072C0.00490081 219.021 -0.0037492 218.964 0.00148508 218.909C0.00671936 218.853 0.0256818 218.799 0.0566837 218.752L96.7567 77.0524C96.7857 77.0092 96.8242 76.9732 96.8692 76.9472C96.9143 76.9212 96.9648 76.9058 97.0167 76.9024Z" fill="#EECEC1"/>
</svg>
